<svg width="40" height="40" viewBox="0 0 40 40" fill="none" xmlns="http://www.w3.org/2000/svg">
  <circle cx="20" cy="20" r="19" fill="#4F46E5" stroke="#3730A3" stroke-width="2"/>
  <path d="M20 28C20 28 16 24 14 22C12 20 12 17 14 15C16 13 18 13 20 15C22 13 24 13 26 15C28 17 28 20 26 22C24 24 20 28 20 28Z" fill="white"/>
  <path d="M8 12L12 16" stroke="white" stroke-width="2" stroke-linecap="round"/>
  <path d="M32 12L28 16" stroke="white" stroke-width="2" stroke-linecap="round"/>
  <path d="M8 28L12 24" stroke="white" stroke-width="2" stroke-linecap="round"/>
  <path d="M32 28L28 24" stroke="white" stroke-width="2" stroke-linecap="round"/>
  <circle cx="8" cy="12" r="2" fill="white"/>
  <circle cx="32" cy="12" r="2" fill="white"/>
  <circle cx="8" cy="28" r="2" fill="white"/>
  <circle cx="32" cy="28" r="2" fill="white"/>
</svg>
